<?xml version="1.0" encoding="UTF-8"?> <svg xmlns="http://www.w3.org/2000/svg" viewBox="0 0 216 33"><path d="M61.8 16.6c1.2-.6 2-1.8 2-3.4 0-2.4-1.7-3.9-4.2-3.9h-5.3v15.5h5.5c2.6 0 4.7-1.6 4.7-4.3-.1-2-1.1-3.5-2.7-3.9zm-6-6h3.8c1.7 0 2.7 1.1 2.7 2.6 0 1.6-1.1 2.7-2.6 2.7h-3.8v-5.3zm4 12.8h-4v-6.1h4c1.8 0 3.1 1.2 3.1 3.1-.1 1.8-1.2 3-3.1 3zm64.5-14.2v6.2s-.9-2.1-3.6-2.1c-2.9 0-5 2.3-5 5.8 0 3.4 1.9 5.8 4.8 5.8s3.8-2.2 3.8-2.2v2h1.5V9.2h-1.5zm-3.6 14.5c-2.1 0-3.5-1.7-3.5-4.5s1.6-4.5 3.6-4.5c2.4 0 3.5 2.2 3.5 4.5 0 3.2-1.7 4.5-3.6 4.5zM95 13.4c-3.3 0-5.9 2.5-5.9 5.8 0 3.4 2.6 5.9 5.9 5.9 3.3 0 5.9-2.5 5.9-5.9 0-3.3-2.6-5.8-5.9-5.8zm0 10.3c-2.4 0-4.3-1.9-4.3-4.5 0-2.5 1.9-4.4 4.3-4.4s4.3 1.9 4.3 4.4c0 2.5-1.9 4.5-4.3 4.5zM71.9 13.4c-3 0-5.5 2.2-5.5 5.8 0 3.4 2.5 5.8 5.8 5.8 2.5 0 4.1-1.5 4.1-1.5l-.7-1.1s-1.3 1.3-3.4 1.3c-2.3 0-4.2-1.5-4.3-4.4h8.5v-.8c.2-2.7-1.4-5.1-4.5-5.1zm-3.8 4.7c.4-2.2 2-3.4 3.8-3.4 1.7 0 3.1 1.1 3.2 3.4h-7zm41.1-4.7c-2.6 0-4 1.8-4.4 2.8v-2.6h-1.5v11.1h1.5v-5.3c0-.5 0-1 .2-1.5.5-1.8 2.1-3.1 4-3.1 2.1 0 2.4 1.5 2.4 3.3v6.7h1.5v-7.1c0-2.7-1-4.3-3.7-4.3zm-25.7 8.4l-.4 1.2-.4-1.2-3.3-8.1h-1.7l4.6 11-.7 1.6c-.4 1-1.1 1.8-2.1 1.8-.7 0-1.3-.5-1.3-.5l-.6 1.2s.8.7 1.9.7c1.5 0 2.6-.9 3.2-2.3l5.5-13.4h-1.6l-3.1 8z" fill="#212721"></path><path d="M142.6 23c-3.5 0-5.8-2.8-5.8-6.2 0-3.3 2.3-6 5.8-6 2.7 0 4.5 1.7 4.5 1.7l1.1-1.6s-1.9-2.1-5.7-2.1c-4.5 0-7.9 3.4-7.9 8s3.3 8.1 8 8.1c3.9 0 6.1-2.5 6.1-2.5l-1.2-1.6c0 .2-1.9 2.2-4.9 2.2zm12.6-9.7c-2.6 0-4.2 1.3-4.2 1.3l.9 1.6s1.4-1.1 3.1-1.1c1.4 0 2.5.6 2.5 2.5v.2h-.5c-1.9 0-6.7.2-6.7 3.8 0 2.2 1.9 3.4 3.8 3.4 2.7 0 3.6-2.2 3.6-2.2v2h2v-7.1c-.1-2.8-1.7-4.4-4.5-4.4zm2.3 6.5c0 1.7-1.2 3.6-3 3.6-1.4 0-2.1-.9-2.1-1.8 0-2 2.9-2.1 4.5-2.1h.6v.3zm6.9-3.4v-2.7h-2.1v11.2h2.1v-4.6c0-.7.1-1.4.3-2 .5-1.7 1.8-2.6 3.1-2.6.3 0 .6.1.6.1v-2.1h-.6c-1.6-.2-2.9 1-3.4 2.7zm12.5-3.1c-2.4 0-3.8 1.6-4.2 2.6v-2.3h-2.1v11.2h2.1v-5.2c0-.6 0-1.1.2-1.5.5-1.6 1.8-2.7 3.5-2.7 1.8 0 2.1 1.2 2.1 2.8v6.7h2.1v-7.2c.1-2.9-1.1-4.4-3.7-4.4zm6.6 11.5h2.1V13.6h-2.1v11.2zm-.1-13.4h2.2V9.2h-2.2v2.2zm7 5.2c0-1 .9-1.4 1.8-1.4 1.8 0 2.8 1 2.8 1l.9-1.6s-1.1-1.2-3.6-1.2c-2.2 0-4 1.1-4 3.2 0 3.6 5.7 3.2 5.7 5.3 0 .9-.9 1.4-1.9 1.4-1.9 0-3.2-1.3-3.2-1.3l-1 1.5s1.5 1.6 4.2 1.6c2.5 0 4-1.4 4-3.2 0-3.8-5.7-3.3-5.7-5.3zm21.5-3.3c-1.8 0-3.4 1.2-4 2.5-.4-1.7-1.5-2.5-3.4-2.5-1.7 0-3.3 1.3-3.8 2.6v-2.3h-2.1v11.2h2.1v-5.1c0-.5 0-1 .1-1.5.4-1.6 1.6-2.9 3.2-2.9 1.7 0 1.9 1.3 1.9 2.8v6.7h2.1v-5.1c0-.6 0-1.1.2-1.5.4-1.5 1.6-2.8 3.1-2.8 1.7 0 2 1.2 2 2.8v6.7h2.1v-7.2c.2-2.9-1-4.4-3.5-4.4zM18.6 16.5c.4-.4 1-.5 1.5-.7-.5-.3-.8-.7-1.3-1-1.3-.9-2.2.2-1.8 1.5 0 .2.1.4.3.5.4.4 1 .1 1.3-.3zm20.8-.3c-.1-.5-.3-.9-.7-1.1-.3-.1-.6 0-.9.1-.5.1-1 .2-1.5.2-2 0-3.8-1.1-5-2.6-1-1.2-2.2-2.2-3.5-3.1-2.1-1.4-4.9-2.3-1.5-4.3 1.6-1 3-2.4 3.1-4.3 0-.3-.1-.7-.3-.9-.4-.2-.7-.2-1-.1-1.2.2-2.3.4-3.5.5C22.2.8 19.9 1.7 18 3c-.9.6-1.6 1.5-2.4 2.2-1.3 1-4.5 1.3-6.1 1.8C4.9 8.5 1.4 8.3.2 13.5c-.8 3.5 1.7 6.1 3.2 9.2.5 1.3 1.7 2.3 3.1 2.7.2 0 .3.1.5 0 .3-.1.5-.3.7-.5 1.2-1.4 2.4-2.8 3.3-4.5.9-1.6 1.5-3.4 1.4-5.3 0-.6-.1-1.1-.1-1.7 0-1.5.8-3.2 2-4.1 1.5-1.1 3.5.6 4.8 1.5.6.4 1.2.8 1.6 1.4.6 1 .7 2.5 1.7 3.2.8.6 2.2.7 3.1.9 1.1.3 2.2.3 3.2.7.6.2.9.6.8 1.3 0 .6-.4 1.1-.5 1.7-.2.8-.1 1.5-.5 2.2-.7 1.5-1.8 2.6-3.2 3.3-1.8.8-3.9 1.2-5.9 1.3-.5 0-1.1 0-1.6-.1-2.3-.4-4.4-1.6-6.2.4-.1.2-.4.4-.7.9-1 1.2-2 2.7-2.7 4.1 2.8.8 5.1 1.1 7.9.3 2.5-.8 4.9-2 7.3-3 2.7-1.1 5.5-1.8 8.4-2.2.8-.1 1.7-.2 2.4-.6.7-.4 1.3-1.2 1.2-2 .7.1 1.5.2 2.2-.2.4-.2.6-.6.8-1 1.3-2.5 1.3-4.5 1-7.2zm-14.2-2.4c-.3-.4-.6-.9-1-1.3.5 0 1.2 0 1.7-.2.4-.2 1.1-.4 1.3.1.1.2.1.4.1.6 0 1.2-1.1 2-2.1.8z" fill-rule="evenodd" clip-rule="evenodd" fill="#00758d"></path></svg> 